<svg width="1920" height="1080" viewBox="0 0 1920 1080" fill="none" xmlns="http://www.w3.org/2000/svg">
<path d="M2181.04 10.445C2153.35 206.665 2081.09 1538.2 1668.7 1510.32C1256.31 1482.45 336.927 1263.44 364.617 1067.22C392.307 871.003 752.037 628.17 1227.28 595.953C1633.17 547.397 1416.85 -115.172 2181.04 10.445Z" fill="#D8E3E8"/>
<path d="M2194.02 106.574C2189.81 309.095 2378.07 1170.26 1819.05 1089.69C1508.05 1083.23 393.358 1323.59 397.566 1121.07C401.775 918.554 1274.68 640.804 1583.36 672.594C1871.53 702.272 2198.23 -95.9459 2194.02 106.574Z" fill="#C2D0D7"/>
<path d="M-146.693 311.784C-130.338 235.751 -57.8056 -285.336 78.3116 -256.057C214.429 -226.777 561.321 -80.7602 544.966 -4.72699C528.611 71.3062 351 131.981 191.793 123.572C55.0521 124.675 102.85 395.166 -146.693 311.784Z" fill="#D8E3E8"/>
</svg>
