<svg version="1.2" xmlns="http://www.w3.org/2000/svg" viewBox="0 0 1500 1000" width="1500" height="1000">
	<title>4203237-ai</title>
	<defs>
		<clipPath clipPathUnits="userSpaceOnUse" id="cp1">
			<path d="m551.16 366.99c-40.14 0-72.68-32.53-72.68-72.67 0-40.14 32.54-72.67 72.68-72.67 40.13 0 72.67 32.53 72.67 72.67 0 40.14-32.54 72.67-72.67 72.67z"/>
		</clipPath>
		<clipPath clipPathUnits="userSpaceOnUse" id="cp2">
			<path d="m551.69 574.94c-40.14 0-72.67-32.53-72.67-72.67 0-40.14 32.53-72.67 72.67-72.67 40.14 0 72.67 32.53 72.67 72.67 0 40.14-32.53 72.67-72.67 72.67z"/>
		</clipPath>
		<clipPath clipPathUnits="userSpaceOnUse" id="cp3">
			<path d="m587.57 598.25q0.02 6.37-0.27 12.93c-1.47 33.22-1.58 42.34-2.21 43.55-0.62 1.21-81.97-9.66-82.18-9.26-0.21 0.4 0.76-25.98-0.03-41.15-0.09-1.63-13.01-49.98-13.01-49.98l-8.47-19.45c0 0 35.04-21.14 49.07-10.07 0 0 16.29 18.14 34.62 5.72l12.67-2.5c1.82-0.98 3.93-1.7 6.45-2.05 7.87-1.09 13.68 1.75 20.01 11.6l18.35 45.14z"/>
		</clipPath>
		<clipPath clipPathUnits="userSpaceOnUse" id="cp4">
			<path d="m551.16 783.34c-40.14 0-72.68-32.54-72.68-72.68 0-40.14 32.54-72.67 72.68-72.67 40.13 0 72.67 32.53 72.67 72.67 0 40.14-32.54 72.68-72.67 72.68z"/>
		</clipPath>
		<clipPath clipPathUnits="userSpaceOnUse" id="cp5">
			<path d="m1313.9 364.23c0 19.23-15.59 34.82-34.82 34.82-19.23 0-34.82-15.59-34.82-34.82 0-19.23 15.59-34.82 34.82-34.82 19.23 0 34.82 15.59 34.82 34.82z"/>
		</clipPath>
	</defs>
	<style>
		.s0 { fill: #ffc557 } 
		.s1 { fill: none;stroke: #ffc557;stroke-width: 2 } 
		.s2 { fill: none;stroke: #648ac9;stroke-width: 1.6 } 
		.s3 { fill: none;stroke: #95b1db;stroke-width: 2 } 
		.s4 { fill: none;stroke: #95b1db;stroke-width: 4 } 
		.s5 { fill: #839dc9 } 
		.s6 { fill: #95b1db } 
		.s7 { opacity: .7;fill: #849cc7 } 
		.s8 { fill: #e0ebfb } 
		.s9 { fill: #cbd9ec } 
		.s10 { fill: #f38c84 } 
		.s11 { fill: #ff768f } 
		.s12 { opacity: .2;fill: #ff768f } 
		.s13 { fill: #05093d } 
		.s14 { fill: #f38c84;stroke: #f38c84;stroke-width: 2.3 } 
		.s15 { fill: #ca5c3b } 
		.s16 { fill: #ffffff } 
		.s17 { fill: #3a5785 } 
		.s18 { fill: none;stroke: #ffffff;stroke-width: 6 } 
		.s19 { fill: none;stroke: #ffffff;stroke-width: 2 } 
		.s20 { fill: #fbb78b;stroke: #fbb78b;stroke-linecap: round;stroke-linejoin: round;stroke-width: 2.4 } 
		.s21 { fill: #fbb78b;stroke: #fbb78b;stroke-width: 2.3 } 
		.s22 { fill: #e6795c;stroke: #e6795c;stroke-width: 2.3 } 
		.s23 { fill: #eb8383 } 
		.s24 { fill: #fccc4f } 
		.s25 { fill: #fcfcfc } 
		.s26 { fill: #a34e65 } 
		.s27 { fill: #ffbbaa;stroke: #ffbbaa;stroke-linecap: round;stroke-linejoin: round;stroke-width: 2.4 } 
		.s28 { fill: #ffbbaa;stroke: #ffbbaa;stroke-width: 2.4 } 
		.s29 { fill: #f08992;stroke: #f08992;stroke-linecap: round;stroke-linejoin: round;stroke-width: 2.3 } 
		.s30 { fill: #ffbbaa;stroke: #ffbbaa;stroke-width: 2.3 } 
		.s31 { fill: #f08992 } 
		.s32 { fill: #ceddf4 } 
		.s33 { fill: #020f2b } 
		.s34 { fill: #f1aba5 } 
		.s35 { fill: #ec7165 } 
		.s36 { fill: #f79288 } 
		.s37 { fill: #000000 } 
		.s38 { fill: #f1a9a5 } 
		.s39 { fill: #ff6e95 } 
		.s40 { fill: #2d4773 } 
		.s41 { fill: none;stroke: #ffffff;stroke-width: .8 } 
		.s42 { opacity: .2;mix-blend-mode: multiply;fill: #000000 } 
		.s43 { fill: #c20034 } 
		.s44 { fill: #d15449 } 
		.s45 { fill: #ff6b82 } 
		.s46 { fill: #ffebf1 } 
		.s47 { opacity: .6;fill: #4e7a8f } 
		.s48 { fill: #fafafa } 
		.s49 { fill: #f0a5a9 } 
		.s50 { fill: #e6777d } 
		.s51 { fill: none;stroke: #ffffff;stroke-width: 1 } 
		.s52 { fill: #d15868 } 
		.s53 { fill: none;stroke: #020f2b;stroke-width: 1 } 
		.s54 { fill: #020f2b;stroke: #020f2b;stroke-width: 1 } 
		.s55 { fill: #263c61 } 
		.s56 { fill: #020f2b;stroke: #1d254a;stroke-width: .4 } 
		.s57 { fill: none;stroke: #1d254a;stroke-width: 1 } 
		.s58 { fill: none;stroke: #1d254a;stroke-width: .7 } 
		.s59 { fill: #dae5f7 } 
		.s60 { fill: #ffffff;stroke: #ffffff;stroke-width: .4 } 
		.s61 { fill: #d8cfce } 
		.s62 { opacity: .4;fill: #839dc9 } 
		.s63 { fill: none;stroke: #7289b5;stroke-width: 2.1 } 
		.s64 { fill: #7289b5 } 
		.s65 { fill: #1b1a4d;stroke: #1b1a4d;stroke-linecap: round;stroke-linejoin: round;stroke-width: 1.5 } 
		.s66 { opacity: .7;fill: #ffffff } 
		.s67 { fill: none;stroke: #ffd375;stroke-width: 5.6 } 
		.s68 { fill: none;stroke: #ffd375;stroke-linecap: round;stroke-width: 7.5 } 
		.s69 { fill: #b4cef7 } 
		.s70 { fill: none;stroke: #ffffff;stroke-width: 1.4 } 
		.s71 { fill: none;stroke: #ffffff;stroke-linecap: round;stroke-width: 1.4 } 
		.s72 { fill: #ffffff;stroke: #ffffff;stroke-width: 1.3 } 
	</style>
	<g id="OBJECTS">
		<g id="&lt;Group&gt;">
			<path id="&lt;Path&gt;" class="s0" d="m977.1 140.6c0 6.6-5.3 12-11.9 12-6.6 0-12-5.4-12-12 0-6.6 5.4-12 12-12 6.6 0 11.9 5.4 11.9 12z"/>
			<path id="&lt;Path&gt;" class="s1" d="m1031 197.5c0 4.9-4 8.9-9 8.9-4.9 0-8.9-4-8.9-8.9 0-5 4-9 8.9-9 5 0 9 4 9 9z"/>
			<path id="&lt;Path&gt;" class="s2" d="m1239.9 337c0 2.5-2.1 4.5-4.6 4.5-2.5 0-4.6-2-4.6-4.5 0-2.6 2.1-4.6 4.6-4.6 2.5 0 4.6 2 4.6 4.6z"/>
			<path id="&lt;Path&gt;" class="s0" d="m191.4 651.7c0 9.2-7.5 16.6-16.7 16.6-9.1 0-16.6-7.4-16.6-16.6 0-9.2 7.5-16.6 16.6-16.6 9.2 0 16.7 7.4 16.7 16.6z"/>
			<path id="&lt;Path&gt;" class="s0" d="m272.8 163.5c0 5-4 9-9 9-4.9 0-8.9-4-8.9-9 0-4.9 4-8.9 8.9-8.9 5 0 9 4 9 8.9z"/>
			<path id="&lt;Path&gt;" class="s0" d="m1288.4 549.6c0 4.4-3.6 8-8 8-4.4 0-8-3.6-8-8 0-4.4 3.6-8 8-8 4.4 0 8 3.6 8 8z"/>
			<path id="&lt;Path&gt;" class="s3" d="m155.1 781.1h1271"/>
			<path id="&lt;Path&gt;" class="s4" d="m237.9 335.1c0 3.9-3.1 7-7 7-3.8 0-7-3.1-7-7 0-3.8 3.2-6.9 7-6.9 3.9 0 7 3.1 7 6.9z"/>
			<path id="&lt;Path&gt;" class="s5" d="m1354.3 641.4c0 4.4-3.6 8-8 8-4.4 0-8-3.6-8-8 0-4.4 3.6-8 8-8 4.4 0 8 3.6 8 8z"/>
			<path id="&lt;Path&gt;" class="s5" d="m1392.4 478c0 2.3-1.9 4.2-4.2 4.2-2.4 0-4.2-1.9-4.2-4.2 0-2.3 1.8-4.2 4.2-4.2 2.3 0 4.2 1.9 4.2 4.2z"/>
		</g>
		<g id="&lt;Group&gt;">
			<g id="&lt;Group&gt;">
				<path id="&lt;Path&gt;" class="s6" d="m810.6 785.7h-468.2v-561.2c0-28.7 22.1-53.2 50.8-53.2l417.4 1.2z"/>
				<path id="&lt;Path&gt;" class="s7" d="m424.8 177.1l385.8 51.1v557.5h-459.6z"/>
			</g>
			<g id="&lt;Group&gt;">
				<path id="&lt;Path&gt;" class="s8" d="m1007.4 871.5l-120.1 1.7h-379.5c-38.6 0-70-31.3-70-70v-585.6l-0.1 0.1c0-25.7-19.1-47-49.2-47l49.3 0.3v-0.4h517.5c27.6 0 50 22.4 50 50z"/>
				<g id="&lt;Group&gt;">
					<g id="&lt;Group&gt;">
						<path id="&lt;Path&gt;" class="s9" d="m551.2 367c-40.2 0-72.7-32.5-72.7-72.7 0-40.1 32.5-72.7 72.7-72.7 40.1 0 72.6 32.6 72.6 72.7 0 40.2-32.5 72.7-72.6 72.7z"/>
						<g id="&lt;Clip Group&gt;" clip-path="url(#cp1)">
							<g id="&lt;Group&gt;">
								<g id="&lt;Group&gt;">
									<path id="&lt;Path&gt;" class="s10" d="m705.9 307.6c0.3-0.8 0.6-1.9 0.3-2.6 0 0-14.7-23.9-11.5-24.5 3.1-0.7 9.3 9.9 10.7 11.4 4.3 4.6 0.4-34.2 2.8-34.2 2.2 0 6.8 16.5 6.8 16.5 0 0-6-15-3.8-15.2 2.2-0.1 9.7 12.8 9.7 12.8 0 0-6.8-12.1-5-11.2 1.8 0.9 9.3 11.7 9.3 11.7 0 0-5.3-7.7-3.6-5.2 11.4 16.9 8.5 43 8.5 43 0 0-0.4 2.7-1.1 7.2z"/>
									<g id="&lt;Group&gt;">
										<path id="&lt;Path&gt;" class="s11" d="m732.1 318.6c0 0-8.4 61.8-25.4 81-20.9 23.6-51.3 33.5-78.9 23.8l-2.1-0.8c-3.4 51.3-21.4 131.6-21.4 131.6l-118.3-1.9 10.9-112.8c-4.3-1.3-11.4-3-14.8-4.5-15.2-6.7-24.7-17.8-33.3-28.6 3.3-5.4 5.6-9.3 5.6-9.3 0 0-10.8-16.1-23.3-25 0 0 60.6-19.2 89.2-24.7l11.4-8.4 32-6.1 14.7 7.2q0 0 0.6 0.2c6 0.6 12.3 2.7 18.4 5.6l53.6 19.5c16.8 6.1 35-12.6 42.2-30.6l10.7-28z"/>
										<path id="&lt;Path&gt;" class="s12" d="m496.9 439.5c-4.3-1.3-11.4-3-14.8-4.5-15.2-6.7-24.7-17.8-33.3-28.6 3.3-5.4 5.6-9.3 5.6-9.3z"/>
										<path id="&lt;Path&gt;" class="s12" d="m604.3 554.2l-55.1-0.5 76.5-131c-2.7 44.5-21.4 131.5-21.4 131.5z"/>
										<path id="&lt;Path&gt;" class="s11" d="m697.6 323.5l31 14.4"/>
									</g>
								</g>
								<g id="&lt;Group&gt;">
									<g id="&lt;Group&gt;">
										<path id="&lt;Path&gt;" class="s10" d="m562.1 304.9l4.8 34.9c0 0-46.1 37.2-43.4 7.3l5.8-41z"/>
										<path id="&lt;Path&gt;" class="s13" d="m559 268.8l4.1 38.5c0 0-38.4 47.6-35.1 1.1l8.2-40.7z"/>
									</g>
									<g id="&lt;Group&gt;">
										<g id="&lt;Group&gt;">
											<g id="&lt;Group&gt;">
												<path id="&lt;Path&gt;" class="s14" d="m518.9 285.6l6.7-1.9 1.5 7.9-6.6 1.9c-2.1 0.6-4.1-0.7-4.5-2.9-0.4-2.2 0.9-4.4 2.9-5z"/>
												<path id="&lt;Path&gt;" class="s15" d="m519.5 287.6l2.8-0.8 0.6 3.3-2.7 0.8c-0.9 0.2-1.7-0.3-1.9-1.2-0.2-1 0.4-1.9 1.2-2.1z"/>
											</g>
											<g id="&lt;Group&gt;">
												<path id="&lt;Path&gt;" class="s14" d="m571.5 283.5l-6.7 0.9-0.6-8.2 6.8-0.9c2.1-0.3 3.9 1.3 4.1 3.6 0.1 2.2-1.5 4.3-3.6 4.6z"/>
												<path id="&lt;Path&gt;" class="s15" d="m572.9 279.4c0.1 0.9-0.6 1.8-1.5 1.9l-2.8 0.3-0.1-3.4 2.8-0.3c0.8-0.1 1.6 0.6 1.6 1.5z"/>
											</g>
											<path id="&lt;Path&gt;" class="s14" d="m545.8 313.6h-0.2c-16 0.7-22.8-10.1-23-23.8l-0.1-1c-0.2-13.6 7.2-35.5 19.8-36.4v-0.2c12.6-1 25.7 19.4 26 33v1c0.3 13.7-4.5 26.2-22.5 27.4z"/>
										</g>
										<g id="&lt;Group&gt;">
											<path id="&lt;Path&gt;" class="s16" d="m547 304.7h-0.1c-5.5 0.5-10.1-3-10.3-7.8v-0.7l20.2-1.8v0.7c0.1 4.8-4.3 9.1-9.8 9.6z"/>
											<path id="&lt;Path&gt;" class="s13" d="m540.9 284.3c0 1-0.6 1.9-1.3 1.9-0.7 0-1.3-0.8-1.3-1.8 0-1 0.5-1.8 1.3-1.9 0.7 0 1.3 0.9 1.3 1.8z"/>
											<path id="&lt;Path&gt;" class="s13" d="m552.8 283.1c0 1-0.6 1.8-1.3 1.8-0.8 0-1.4-0.8-1.4-1.8 0-1 0.6-1.8 1.4-1.8 0.7 0 1.3 0.8 1.3 1.8z"/>
											<path id="&lt;Path&gt;" class="s15" d="m548.5 291.7l-4.7 0.3c-0.6 0-1-0.7-0.8-1.4l1.8-5.8c0.3-0.8 1.1-0.9 1.4-0.2l2.9 5.6c0.3 0.7 0 1.5-0.6 1.5z"/>
											<path id="&lt;Path&gt;" class="s13" d="m533.4 279.3c-1.3 1.1 0.4-3.5 2.2-4.2 1.9-0.7 3.9 0 4.5 1.6 0 0-3.6-0.1-6.7 2.6z"/>
											<path id="&lt;Path&gt;" class="s13" d="m548 274.8c0.2-1.7 2-2.9 3.9-2.6 2 0.2 4.7 4.3 3.2 3.5-3.7-1.9-7.1-0.9-7.1-0.9z"/>
										</g>
										<path id="&lt;Path&gt;" class="s13" d="m567.7 274.8c-1.2-0.1-8-8.7-11.2-13.1-4.2 1.6-9.4 3.1-14.5 3.7-4.5 0.6-9 0.6-12.8 0.1-2.3 6.8-6.1 19.2-6.8 19.2-1.6-0.2-4.6-9.8-4.8-11.4-0.5-3.6-0.4-7.3 0.9-10.7q0.2-0.7 0.6-1.4c-0.3-0.5-0.3-1.1-0.1-1.7 8.4-22.1 41.7-29.9 42.9-29.7 3.1 0.4 5 27.6 5 27.6 0 0-0.9 0.4-2.6 1.2q0.3 0.5 0.5 1c1 2.4 4 15.2 2.9 15.2z"/>
									</g>
								</g>
							</g>
						</g>
					</g>
					<g id="&lt;Group&gt;">
						<path id="&lt;Path&gt;" class="s17" d="m660.9 241.3l1.3 4c0.2 0.5 0.7 0.9 1.3 0.9h4.2c1.3 0 1.9 1.7 0.8 2.4l-3.4 2.5c-0.5 0.4-0.7 1-0.5 1.5l1.3 4c0.4 1.3-1 2.3-2.1 1.6l-3.4-2.5c-0.5-0.4-1.1-0.4-1.6 0l-3.4 2.5c-1 0.7-2.5-0.3-2.1-1.6l1.3-4c0.2-0.5 0-1.1-0.4-1.5l-3.5-2.5c-1-0.7-0.5-2.4 0.8-2.4h4.3c0.5 0 1.1-0.4 1.2-0.9l1.3-4c0.4-1.3 2.2-1.3 2.6 0z"/>
						<path id="&lt;Path&gt;" class="s17" d="m688.5 241.3l1.3 4c0.2 0.5 0.7 0.9 1.3 0.9h4.2c1.3 0 1.9 1.7 0.8 2.4l-3.4 2.5c-0.5 0.4-0.7 1-0.5 1.5l1.3 4c0.4 1.3-1 2.3-2.1 1.6l-3.4-2.5c-0.5-0.4-1.1-0.4-1.6 0l-3.4 2.5c-1 0.7-2.5-0.3-2.1-1.6l1.3-4c0.2-0.5 0-1.1-0.5-1.5l-3.4-2.5c-1-0.7-0.5-2.4 0.8-2.4h4.2c0.6 0 1.2-0.4 1.3-0.9l1.3-4c0.4-1.3 2.2-1.3 2.6 0z"/>
						<path id="&lt;Path&gt;" class="s17" d="m716.1 241.3l1.3 4c0.2 0.5 0.7 0.9 1.3 0.9h4.2c1.3 0 1.9 1.7 0.8 2.4l-3.4 2.5c-0.5 0.4-0.7 1-0.5 1.5l1.3 4c0.4 1.3-1 2.3-2.1 1.6l-3.4-2.5c-0.5-0.4-1.1-0.4-1.6 0l-3.4 2.5c-1 0.7-2.5-0.3-2.1-1.6l1.3-4c0.2-0.5 0-1.1-0.5-1.5l-3.4-2.5c-1-0.7-0.5-2.4 0.8-2.4h4.2c0.6 0 1.1-0.4 1.3-0.9l1.3-4c0.4-1.3 2.2-1.3 2.6 0z"/>
						<path id="&lt;Path&gt;" class="s17" d="m743.7 241.3l1.3 4c0.2 0.5 0.7 0.9 1.3 0.9h4.2c1.3 0 1.9 1.7 0.8 2.4l-3.4 2.5c-0.5 0.4-0.7 1-0.5 1.5l1.3 4c0.4 1.3-1 2.3-2.1 1.6l-3.4-2.5c-0.5-0.4-1.1-0.4-1.6 0l-3.4 2.5c-1.1 0.7-2.5-0.3-2.1-1.6l1.3-4c0.2-0.5 0-1.1-0.5-1.5l-3.4-2.5c-1-0.7-0.5-2.4 0.8-2.4h4.2c0.6 0 1.1-0.4 1.3-0.9l1.3-4c0.4-1.3 2.2-1.3 2.6 0z"/>
						<path id="&lt;Path&gt;" class="s9" d="m771.3 241.3l1.3 4c0.2 0.5 0.7 0.9 1.3 0.9h4.2c1.3 0 1.9 1.7 0.8 2.4l-3.4 2.5c-0.5 0.4-0.7 1-0.5 1.5l1.3 4c0.4 1.3-1 2.3-2.1 1.6l-3.4-2.5c-0.5-0.4-1.1-0.4-1.6 0l-3.4 2.5c-1.1 0.7-2.5-0.3-2.1-1.6l1.3-4c0.2-0.5 0-1.1-0.5-1.5l-3.4-2.5c-1-0.7-0.5-2.4 0.8-2.4h4.2c0.6 0 1.1-0.4 1.3-0.9l1.3-4c0.4-1.3 2.2-1.3 2.6 0z"/>
					</g>
					<path id="&lt;Path&gt;" class="s16" d="m794.4 286.3h-148c-3.8 0-7-3.1-7-7v-3.2c0-3.9 3.2-7.1 7-7.1h148c3.9 0 7.1 3.2 7.1 7.1v3.2c0 3.9-3.2 7-7.1 7z"/>
					<path id="&lt;Path&gt;" class="s18" d="m948.9 358.7h-54.5v-54.5h54.5z"/>
					<path id="&lt;Path&gt;" class="s19" d="m466.1 394.6h478.8"/>
					<path id="&lt;Path&gt;" class="s18" d="m640.3 308.2h215.5"/>
					<path id="&lt;Path&gt;" class="s18" d="m640.3 332.1h215.5"/>
					<path id="&lt;Path&gt;" class="s18" d="m640.3 356h215.5"/>
				</g>
				<g id="&lt;Group&gt;">
					<g id="&lt;Group&gt;">
						<path id="&lt;Path&gt;" class="s9" d="m551.2 574.5c-40.2 0-72.7-32.5-72.7-72.7 0-40.1 32.5-72.6 72.7-72.6 40.1 0 72.6 32.5 72.6 72.6 0 40.2-32.5 72.7-72.6 72.7z"/>
						<g id="&lt;Clip Group&gt;" clip-path="url(#cp2)">
							<g id="&lt;Group&gt;">
								<g id="&lt;Group&gt;">
									<g id="&lt;Group&gt;">
										<g id="&lt;Group&gt;">
											<path id="&lt;Path&gt;" class="s13" d="m526.2 464.5c1.4-6.8 5.6-19.7 16.7-22.6 10.8-2.7 20.2-2 30.7 5.3 20.3 14 7.9 86.6 7.9 86.6 0 0-7.6 16.5-63.6-5.1 0 0 6.5-55.1 8.3-64.2z"/>
										</g>
										<g id="&lt;Group&gt;">
											<path id="&lt;Path&gt;" class="s20" d="m557.2 502.5c5.7 26 8.8 36.1 8.8 36.1-18.5 18.5-36.5-3-36.5-3 0.5-3.4 5.9-45 5.9-45z"/>
											<path id="&lt;Path&gt;" class="s13" d="m563.9 525.5c1.2 4.7 2.7 13.1 2.7 13.1-18.4 18.5-16.6 9.7-16.6 9.7z"/>
											<path id="&lt;Path&gt;" class="s13" d="m558.6 502.9c-1.5 5.4-10.8 10-15.9 8.9-6.3-1.4-9.1-12.5-8.5-17.1 0.5-3.9 11.2-6 16.3-4.6 5.1 1.4 9.6 7.3 8.1 12.8z"/>
										</g>
										<g id="&lt;Group&gt;">
											<g id="&lt;Group&gt;">
												<g id="&lt;Group&gt;">
													<path id="&lt;Path&gt;" class="s21" d="m527.3 469.9l7.3 1.2-1.4 8.1-7.3-1.3c-2.2-0.4-3.7-2.5-3.3-4.7 0.4-2.2 2.5-3.7 4.7-3.3z"/>
													<path id="&lt;Path&gt;" class="s22" d="m526.7 472l3 0.5-0.6 3.3-3-0.5c-0.9-0.2-1.5-1.1-1.4-2 0.2-0.9 1.1-1.5 2-1.3z"/>
												</g>
												<g id="&lt;Group&gt;">
													<path id="&lt;Path&gt;" class="s21" d="m574.4 486.8l-7-2.2 2.5-7.8 7 2.2c2.1 0.6 3.3 2.9 2.6 5.1-0.6 2.1-2.9 3.3-5.1 2.7z"/>
													<path id="&lt;Path&gt;" class="s22" d="m577.3 483.3c-0.2 0.9-1.2 1.4-2.1 1.1l-2.9-1 1.1-3.2 2.9 1c0.9 0.3 1.3 1.2 1 2.1z"/>
												</g>
												<path id="&lt;Path&gt;" class="s21" d="m559.8 453.7c12.9 4.1 18 17.6 13.9 30.6l-0.3 1c-4.1 13-18.1 21.3-28.9 17.7l-0.1-0.1c-8.4-3.2-19.7-19.1-15.6-32.1l0.3-1c4.1-13 17.7-20.2 30.7-16.1z"/>
											</g>
											<g id="&lt;Group&gt;">
												<path id="&lt;Path&gt;" class="s16" d="m542.4 486l13.1 3.1c-0.8 3.4-4.1 5.4-7.5 4.6l-1-0.2c-3.3-0.8-5.4-4.2-4.6-7.5z"/>
												<path id="&lt;Path&gt;" class="s13" d="m556.5 479.2c0.7 0.1 1.1 1.1 0.9 2-0.2 1-1 1.6-1.7 1.4-0.7-0.2-1.1-1.1-0.9-2 0.2-1 1-1.6 1.7-1.4z"/>
												<path id="&lt;Path&gt;" class="s13" d="m546.4 476.8c0.7 0.3 1.1 1.2 0.8 2.1-0.3 1-1.1 1.5-1.8 1.3-0.7-0.2-1.1-1.2-0.8-2.1 0.3-0.9 1.1-1.5 1.8-1.3z"/>
												<path id="&lt;Path&gt;" class="s23" d="m547.6 483.4l3-3.7c0.4-0.5 1-0.3 1.1 0.3l0.4 4.7c0 0.5-0.4 1-0.9 0.9l-3.4-0.9c-0.4-0.2-0.5-0.8-0.2-1.3z"/>
												<path id="&lt;Path&gt;" class="s13" d="m542.5 473.4c-1.1 0.4 1.2-2 2.5-2 1.3 0.1 2.4 1.1 2.3 2.2 0 0-2.2-1-4.8-0.2z"/>
												<path id="&lt;Path&gt;" class="s13" d="m557 475.8c0.5-1 1.8-1.4 3-0.9 1.3 0.6 2.2 3.8 1.4 2.9-2-1.9-4.4-2-4.4-2z"/>
											</g>
										</g>
										<g id="&lt;Group&gt;">
											<path id="&lt;Path&gt;" class="s13" d="m548.5 445.9c35 0.9 28.3 32.5 28.3 32.5 0 0-42-9.9-32.2-26.1 1-1.6-18.7-7 3.9-6.4z"/>
											<path id="&lt;Path&gt;" class="s13" d="m547.6 451.8c0 0-10.1 14.5-12.7 16.9-2.9 2.8-7.5-0.4-7.5-0.4 0 0 1.4-22.6 20.2-16.5z"/>
										</g>
										<g id="&lt;Group&gt;">
											<g id="&lt;Group&gt;">
												<path id="&lt;Path&gt;" class="s24" d="m585.8 497.8c0 4.7-3.8 8.5-8.5 8.5-4.7 0-8.5-3.8-8.5-8.5 0-4.7 3.8-8.5 8.5-8.5 4.7 0 8.5 3.8 8.5 8.5z"/>
												<path id="&lt;Path&gt;" class="s24" d="m577.7 488.1c0 1-0.8 1.8-1.7 1.8-0.9 0-1.7-0.8-1.7-1.8 0-0.9 0.8-1.7 1.7-1.7 0.9 0 1.7 0.8 1.7 1.7z"/>
											</g>
											<g id="&lt;Group&gt;">
												<path id="&lt;Path&gt;" class="s24" d="m528.7 491.5c-2.3 4.1-7.5 5.6-11.6 3.4-4.1-2.3-5.6-7.5-3.3-11.6 2.2-4.1 7.4-5.6 11.5-3.4 4.2 2.3 5.7 7.5 3.4 11.6z"/>
												<path id="&lt;Path&gt;" class="s24" d="m526.2 479.1c-0.4 0.9-1.5 1.2-2.3 0.7-0.8-0.5-1.1-1.5-0.7-2.3 0.5-0.8 1.5-1.1 2.4-0.7 0.8 0.5 1.1 1.5 0.6 2.3z"/>
											</g>
										</g>
									</g>
									<g id="&lt;Group&gt;">
										<g id="&lt;Group&gt;">
											<path id="&lt;Path&gt;" class="s24" d="m587.6 598.2q0 6.4-0.3 13c-1.5 33.2-1.6 42.3-2.2 43.5-0.6 1.2-82-9.6-82.2-9.2-0.2 0.4 0.8-26 0-41.2-0.1-1.6-13-50-13-50l-3.4-19.4c0 0 29.9-21.2 44-10.1 0 0 16.3 18.2 34.6 5.7l12.7-2.5c1.8-0.9 3.9-1.7 6.4-2 7.9-1.1 13.7 1.7 20 11.6l18.4 45.1z"/>
											<g id="&lt;Clip Group&gt;" clip-path="url(#cp3)">
												<g id="&lt;Group&gt;">
													<g id="&lt;Group&gt;">
														<g id="&lt;Group&gt;">
															<path id="&lt;Path&gt;" class="s16" d="m544 648.7c-14.1-11.4-28.2-23.3-38.3-38.5-4.7-7.1-8.6-14.8-11-23-0.4-1.6-3.6-11.1-2.4-12.3 2.2-2.3 8.5 2.1 11 3.2 16.9 7.9 31 18.1 41.9 33.4 10.9 15.2 20.5 31.9 24.5 50.2 0.3 1.3 2.2 0.7 1.9-0.5-4.5-20.5-15.9-39.9-28.8-56.2-13.4-16.9-31.9-25.8-51.2-34.2-0.6-0.2-1.5 0.1-1.5 0.9 2.4 34.1 27.3 58.1 52.5 78.4 0.9 0.8 2.3-0.6 1.4-1.4z"/>
														</g>
													</g>
													<g id="&lt;Group&gt;">
														<g id="&lt;Group&gt;">
															<path id="&lt;Path&gt;" class="s16" d="m480.9 510.7c26 42.9 56.7 89 108.4 102.1 0.9 0.2 1.5-0.7 1.1-1.5-10.9-23.7-24.9-45.9-41.7-65.9-16-19-35.8-40.7-58.9-51.1-1.1-0.5-2.1 1.2-0.9 1.7 21.9 9.9 40.8 30.3 56.3 48.3 8.2 9.5 15.8 19.7 22.7 30.3 6.4 9.7 14.2 20.7 18 31.7 1.1 3.1 2.3 2.9-0.7 3.4-2 0.3-5.4-1.7-7.5-2.5-6.3-2.4-12.4-5.3-18.2-8.8-10.5-6.2-20-13.8-28.6-22.4-19.5-19.3-34.1-42.9-48.3-66.3-0.7-1.1-2.4-0.1-1.7 1z"/>
														</g>
													</g>
													<g id="&lt;Group&gt;">
														<g id="&lt;Group&gt;">
															<path id="&lt;Path&gt;" class="s16" d="m573.4 528.9c6.7 30.1 31.3 54.7 63.8 50.8 1.3-0.1 1.3 1.8 0 2-33.3 4-58.8-21.3-65.7-52.3-0.3-1.2 1.6-1.7 1.9-0.5z"/>
														</g>
													</g>
												</g>
											</g>
										</g>
									</g>
								</g>
							</g>
						</g>
					</g>
					<g id="&lt;Group&gt;">
						<path id="&lt;Path&gt;" class="s17" d="m660.9 448.8l1.3 4c0.2 0.5 0.7 0.9 1.3 0.9h4.2c1.3 0 1.9 1.7 0.8 2.4l-3.4 2.5c-0.5 0.4-0.7 1-0.5 1.5l1.3 4c0.4 1.3-1 2.3-2.1 1.6l-3.4-2.5c-0.5-0.4-1.1-0.4-1.6 0l-3.4 2.5c-1 0.7-2.5-0.3-2.1-1.6l1.3-4c0.2-0.5 0-1.1-0.4-1.5l-3.5-2.5c-1-0.7-0.5-2.4 0.8-2.4h4.3c0.5 0 1.1-0.4 1.2-0.9l1.3-4c0.4-1.3 2.2-1.3 2.6 0z"/>
						<path id="&lt;Path&gt;" class="s17" d="m688.5 448.8l1.3 4c0.2 0.5 0.7 0.9 1.3 0.9h4.2c1.3 0 1.9 1.7 0.8 2.4l-3.4 2.5c-0.5 0.4-0.7 1-0.5 1.5l1.3 4c0.4 1.3-1 2.3-2.1 1.6l-3.4-2.5c-0.5-0.4-1.1-0.4-1.6 0l-3.4 2.5c-1 0.7-2.5-0.3-2.1-1.6l1.3-4c0.2-0.5 0-1.1-0.5-1.5l-3.4-2.5c-1-0.7-0.5-2.4 0.8-2.4h4.2c0.6 0 1.2-0.4 1.3-0.9l1.3-4c0.4-1.3 2.2-1.3 2.6 0z"/>
						<path id="&lt;Path&gt;" class="s17" d="m716.1 448.8l1.3 4c0.2 0.5 0.7 0.9 1.3 0.9h4.2c1.3 0 1.9 1.7 0.8 2.4l-3.4 2.5c-0.5 0.4-0.7 1-0.5 1.5l1.3 4c0.4 1.3-1 2.3-2.1 1.6l-3.4-2.5c-0.5-0.4-1.1-0.4-1.6 0l-3.4 2.5c-1 0.7-2.5-0.3-2.1-1.6l1.3-4c0.2-0.5 0-1.1-0.5-1.5l-3.4-2.5c-1-0.7-0.5-2.4 0.8-2.4h4.2c0.6 0 1.1-0.4 1.3-0.9l1.3-4c0.4-1.3 2.2-1.3 2.6 0z"/>
						<path id="&lt;Path&gt;" class="s17" d="m743.7 448.8l1.3 4c0.2 0.5 0.7 0.9 1.3 0.9h4.2c1.3 0 1.9 1.7 0.8 2.4l-3.4 2.5c-0.5 0.4-0.7 1-0.5 1.5l1.3 4c0.4 1.3-1 2.3-2.1 1.6l-3.4-2.5c-0.5-0.4-1.1-0.4-1.6 0l-3.4 2.5c-1.1 0.7-2.5-0.3-2.1-1.6l1.3-4c0.2-0.5 0-1.1-0.5-1.5l-3.4-2.5c-1-0.7-0.5-2.4 0.8-2.4h4.2c0.6 0 1.1-0.4 1.3-0.9l1.3-4c0.4-1.3 2.2-1.3 2.6 0z"/>
						<path id="&lt;Path&gt;" class="s17" d="m771.3 448.8l1.3 4c0.2 0.5 0.7 0.9 1.3 0.9h4.2c1.3 0 1.9 1.7 0.8 2.4l-3.4 2.5c-0.5 0.4-0.7 1-0.5 1.5l1.3 4c0.4 1.3-1 2.3-2.1 1.6l-3.4-2.5c-0.5-0.4-1.1-0.4-1.6 0l-3.4 2.5c-1.1 0.7-2.5-0.3-2.1-1.6l1.3-4c0.2-0.5 0-1.1-0.5-1.5l-3.4-2.5c-1-0.7-0.5-2.4 0.8-2.4h4.2c0.6 0 1.1-0.4 1.3-0.9l1.3-4c0.4-1.3 2.2-1.3 2.6 0z"/>
					</g>
					<path id="&lt;Path&gt;" class="s16" d="m794.4 493.8h-148c-3.8 0-7-3.1-7-7v-3.2c0-3.9 3.2-7 7-7h148c3.9 0 7.1 3.1 7.1 7v3.2c0 3.9-3.2 7-7.1 7z"/>
					<path id="&lt;Path&gt;" class="s18" d="m948.9 566.2h-54.5v-54.5h54.5z"/>
					<path id="&lt;Path&gt;" class="s19" d="m466.1 602.1h478.8"/>
					<path id="&lt;Path&gt;" class="s18" d="m640.3 515.7h215.5"/>
					<path id="&lt;Path&gt;" class="s18" d="m640.3 539.6h215.5"/>
					<path id="&lt;Path&gt;" class="s18" d="m640.3 563.5h215.5"/>
				</g>
				<g id="&lt;Group&gt;">
					<g id="&lt;Group&gt;">
						<path id="&lt;Path&gt;" class="s25" d="m551.2 783.3c-40.2 0-72.7-32.5-72.7-72.6 0-40.2 32.5-72.7 72.7-72.7 40.1 0 72.6 32.5 72.6 72.7 0 40.1-32.5 72.6-72.6 72.6z"/>
						<g id="&lt;Clip Group&gt;" clip-path="url(#cp4)">
							<g id="&lt;Group&gt;">
								<g id="&lt;Group&gt;">
									<g id="&lt;Group&gt;">
										<path id="&lt;Path&gt;" class="s26" d="m580.3 852.3c-22.2 14.6-24.2 6.2-24.2 6.2l-1-44.4-8.1 57.1c-62.9 26.7-138.2-81.6-136.9-86.6 1.4-5 25.5-21.2 48.5-22.9 23-1.7 35.4-30.1 44.3-61.5 8.9-31.4 37.9-42.7 37.9-42.7 68.6-19.3 61.7 180.2 39.5 194.8z"/>
										<g id="&lt;Group&gt;">
											<g id="&lt;Group&gt;">
												<path id="&lt;Path&gt;" class="s26" d="m555.6 661c-21.6-4.8-42.7 6.6-50.8 27.1-6.5 16.4-6 34.6-11.7 51.2-4.9 14.1-13.7 23.4-28.8 25.7-20.6 3-40.6-3.9-56 14.4-1.7 2-4.5-0.9-2.9-2.9 13.6-16.1 31-14.5 50.4-15 15.2-0.3 26.5-5.9 32.3-20.4 3.5-8.7 4.9-18.1 6.4-27.3 2.9-17.1 6.2-35.3 20.3-47 11.7-9.7 27.2-13 41.9-9.7 2.6 0.5 1.5 4.5-1.1 3.9z"/>
											</g>
										</g>
									</g>
									<g id="&lt;Group&gt;">
										<path id="&lt;Path&gt;" class="s27" d="m564.5 704.4c0 0 5 43.4 5.9 46.7 0 0-13.2 14.8-32.3 4.1 0 0 2.1-12.9 5.5-39.4z"/>
										<path id="&lt;Path&gt;" class="s13" d="m566.8 698.4l-0.8 2.1c3.1 13.9-3.2 27.4-8.9 27-7.1-0.4-15.8-7.5-18.9-21.4l-0.2-1c-3.1-13.9-0.1-26.7 8.3-28.6 8.3-1.8 17.4 8 20.5 21.9z"/>
									</g>
									<g id="&lt;Group&gt;">
										<g id="&lt;Group&gt;">
											<g id="&lt;Group&gt;">
												<path id="&lt;Path&gt;" class="s28" d="m524 698.2c-0.7-2.1 0.5-4.5 2.6-5.2l7-2.4 2.7 7.8-7 2.4c-2.2 0.7-4.5-0.4-5.3-2.6z"/>
												<path id="&lt;Path&gt;" class="s28" d="m582.3 684.3c0.6 2.2-0.7 4.4-2.9 5.1l-7.1 2-2.2-7.9 7.1-2.1c2.2-0.6 4.4 0.7 5.1 2.9z"/>
												<path id="&lt;Path&gt;" class="s29" d="m580.2 684.6c0.2 0.9-0.3 1.9-1.2 2.1l-2.9 0.9-1-3.3 3-0.8c0.9-0.3 1.8 0.2 2.1 1.1z"/>
												<path id="&lt;Path&gt;" class="s29" d="m527.3 695.2l2.8-1 1.2 3.2-2.9 1c-0.9 0.4-1.8-0.1-2.2-1-0.3-0.9 0.2-1.8 1.1-2.2z"/>
											</g>
											<path id="&lt;Path&gt;" class="s30" d="m575.8 685.9l0.2 1c3.1 13-9.1 29.8-17.9 32.2-8.6 2.3-25-8-28-21l-0.3-1c-3-12.9 3.2-25.8 16.5-29 13.4-3.1 26.4 4.9 29.5 17.8z"/>
										</g>
										<g id="&lt;Group&gt;">
											<path id="&lt;Path&gt;" class="s16" d="m547.6 703.5l13.6-3.6c0.9 3.4-1.2 7-4.6 7.9l-1 0.3c-3.5 0.9-7-1.2-8-4.6z"/>
											<path id="&lt;Path&gt;" class="s13" d="m557.2 690.3c0.7-0.2 1.5 0.4 1.8 1.4 0.2 1-0.1 2-0.9 2.2-0.7 0.2-1.5-0.5-1.8-1.5-0.3-0.9 0.1-1.9 0.9-2.1z"/>
											<path id="&lt;Path&gt;" class="s13" d="m546.8 693.1c0.8-0.1 1.5 0.6 1.7 1.6 0.2 1-0.3 1.9-1 2-0.8 0.2-1.5-0.5-1.7-1.5-0.2-1 0.3-1.9 1-2.1z"/>
											<path id="&lt;Path&gt;" class="s31" d="m551.1 698.6l0.9-5c0.2-0.6 0.8-0.7 1.1-0.2l2.7 4.2c0.3 0.4 0.1 1.1-0.3 1.2l-3.6 0.8c-0.4 0.1-0.9-0.4-0.8-1z"/>
											<path id="&lt;Path&gt;" class="s13" d="m541.5 692c-0.8 0.8 0.1-2.5 1.3-3.1 1.3-0.6 2.7-0.2 3.2 0.9 0 0-2.5 0.1-4.5 2.2z"/>
											<path id="&lt;Path&gt;" class="s13" d="m556 687c-0.1-1.2 0.9-2.2 2.3-2.3 1.4-0.1 3.8 2.4 2.6 2-2.7-0.8-4.9 0.3-4.9 0.3z"/>
										</g>
									</g>
								</g>
								<g id="&lt;Group&gt;">
									<g id="&lt;Group&gt;">
										<path id="&lt;Path&gt;" class="s11" d="m623.2 771.5c0 0-26.3 43.1-26.6 44.2-1.6 6.4 7.6 46.5 7.6 46.5l-86.5-2.9-2.1-56-30.1-25.8c0 0 0.1-0.8 14.7-24.6 16.1-26.5 38.3-12.2 38.3-12.2 13.8 20.8 27.9 15 32.3 7.9 17.9-28.6 52.4 22.9 52.4 22.9z"/>
										<path id="&lt;Path&gt;" class="s11" d="m517.1 838.5l80.9 2.2"/>
									</g>
								</g>
								<path id="&lt;Path&gt;" class="s26" d="m545 664.4c17.6-7.3 30.5 16.3 30.5 16.3-12.9 2.8-29.2-12.6-29.2-12.6-3.5 17.9-18.8 22.7-18.8 22.7 0.1-8.3-0.2-19.1 17.5-26.4z"/>
							</g>
						</g>
					</g>
					<g id="&lt;Group&gt;">
						<path id="&lt;Path&gt;" class="s17" d="m660.9 657.6l1.3 4c0.2 0.6 0.7 0.9 1.3 0.9h4.2c1.3 0 1.9 1.7 0.8 2.5l-3.4 2.5c-0.5 0.3-0.7 0.9-0.5 1.5l1.3 4c0.4 1.2-1 2.3-2.1 1.5l-3.4-2.5c-0.5-0.3-1.1-0.3-1.6 0l-3.4 2.5c-1 0.8-2.5-0.3-2.1-1.5l1.3-4c0.2-0.6 0-1.2-0.4-1.5l-3.5-2.5c-1-0.8-0.5-2.5 0.8-2.5h4.3c0.5 0 1.1-0.3 1.2-0.9l1.3-4c0.4-1.3 2.2-1.3 2.6 0z"/>
						<path id="&lt;Path&gt;" class="s17" d="m688.5 657.6l1.3 4c0.2 0.6 0.7 0.9 1.3 0.9h4.2c1.3 0 1.9 1.7 0.8 2.5l-3.4 2.5c-0.5 0.3-0.7 0.9-0.5 1.5l1.3 4c0.4 1.2-1 2.3-2.1 1.5l-3.4-2.5c-0.5-0.3-1.1-0.3-1.6 0l-3.4 2.5c-1 0.8-2.5-0.3-2.1-1.5l1.3-4c0.2-0.6 0-1.2-0.5-1.5l-3.4-2.5c-1-0.8-0.5-2.5 0.8-2.5h4.2c0.6 0 1.2-0.3 1.3-0.9l1.3-4c0.4-1.3 2.2-1.3 2.6 0z"/>
						<path id="&lt;Path&gt;" class="s17" d="m716.1 657.6l1.3 4c0.2 0.6 0.7 0.9 1.3 0.9h4.2c1.3 0 1.9 1.7 0.8 2.5l-3.4 2.5c-0.5 0.3-0.7 0.9-0.5 1.5l1.3 4c0.4 1.2-1 2.3-2.1 1.5l-3.4-2.5c-0.5-0.3-1.1-0.3-1.6 0l-3.4 2.5c-1 0.8-2.5-0.3-2.1-1.5l1.3-4c0.2-0.6 0-1.2-0.5-1.5l-3.4-2.5c-1-0.8-0.5-2.5 0.8-2.5h4.2c0.6 0 1.1-0.3 1.3-0.9l1.3-4c0.4-1.3 2.2-1.3 2.6 0z"/>
						<path id="&lt;Path&gt;" class="s9" d="m743.7 657.6l1.3 4c0.2 0.6 0.7 0.9 1.3 0.9h4.2c1.3 0 1.9 1.7 0.8 2.5l-3.4 2.5c-0.5 0.3-0.7 0.9-0.5 1.5l1.3 4c0.4 1.2-1 2.3-2.1 1.5l-3.4-2.5c-0.5-0.3-1.1-0.3-1.6 0l-3.4 2.5c-1.1 0.8-2.5-0.3-2.1-1.5l1.3-4c0.2-0.6 0-1.2-0.5-1.5l-3.4-2.5c-1-0.8-0.5-2.5 0.8-2.5h4.2c0.6 0 1.1-0.3 1.3-0.9l1.3-4c0.4-1.3 2.2-1.3 2.6 0z"/>
						<path id="&lt;Path&gt;" class="s9" d="m771.3 657.6l1.3 4c0.2 0.6 0.7 0.9 1.3 0.9h4.2c1.3 0 1.9 1.7 0.8 2.5l-3.4 2.5c-0.5 0.3-0.7 0.9-0.5 1.5l1.3 4c0.4 1.2-1 2.3-2.1 1.5l-3.4-2.5c-0.5-0.3-1.1-0.3-1.6 0l-3.4 2.5c-1.1 0.8-2.5-0.3-2.1-1.5l1.3-4c0.2-0.6 0-1.2-0.5-1.5l-3.4-2.5c-1-0.8-0.5-2.5 0.8-2.5h4.2c0.6 0 1.1-0.3 1.3-0.9l1.3-4c0.4-1.3 2.2-1.3 2.6 0z"/>
					</g>
					<path id="&lt;Path&gt;" class="s16" d="m794.4 702.7h-148c-3.8 0-7-3.2-7-7.1v-3.2c0-3.9 3.2-7 7-7h148c3.9 0 7.1 3.1 7.1 7v3.2c0 3.9-3.2 7.1-7.1 7.1z"/>
					<path id="&lt;Path&gt;" class="s18" d="m948.9 775h-54.5v-54.5h54.5z"/>
					<path id="&lt;Path&gt;" class="s19" d="m466.1 811h478.8"/>
					<path id="&lt;Path&gt;" class="s18" d="m640.3 724.5h215.5"/>
					<path id="&lt;Path&gt;" class="s18" d="m640.3 748.4h215.5"/>
					<path id="&lt;Path&gt;" class="s18" d="m640.3 772.4h215.5"/>
				</g>
			</g>
			<path id="&lt;Path&gt;" class="s32" d="m498.7 873.5c18.7 0 45.9-25.2 45.9-43.9h516.7c0 0-2 43.9-51.9 43.9z"/>
		</g>
		<g id="&lt;Group&gt;">
			<g id="&lt;Group&gt;">
				<g id="&lt;Group&gt;">
					<path id="&lt;Path&gt;" class="s33" d="m1169.4 511.3l-37-159.2c-0.5-4.2 7-14.1 10.7-16.2 10-5.7 22.3-6.6 33.5-4.2 36.8 7.6 68 154.4 61.9 150.9 0 0-55.2 28.8-73 17.1"/>
					<path id="&lt;Path&gt;" class="s34" d="m1172.3 365.9c0 0.5 0.4 1 1 1 2.3 0 7.7-0.5 8.4 5.5 0.8 6.2-5.1 9.6-8.6 9.8-1 0.1-3.3 0.3-4 1-2.1 2.3-3.1 7.3-4.7 13.6-3.6 13.8 7.2 20.1 7.2 20.1 0 0-36.2 17.8-35.8 0 0 0 2.8-32.8 2.7-33-2.9-2.8-13.9-4-7-27.4 6.4-21.7 22.3-20.2 26.4-19.5 3.4 0.6 15.2 1.4 14.4 28.9z"/>
					<path id="&lt;Path&gt;" class="s33" d="m1146.7 334.9c0 0 22.2 29.4 26.1 31.8 0 0 15.1-35.8-26.1-31.8z"/>
					<g id="&lt;Group&gt;">
						<path id="&lt;Path&gt;" class="s35" d="m1179.1 374.2c0 0-3.7-7.7-8.3 2.6"/>
						<path id="&lt;Path&gt;" class="s36" d="m1157.5 371.5c-0.1 3-2.5 5.4-5.6 5.3-3-0.1-5.3-2.6-5.3-5.6 0.1-3 2.6-5.4 5.6-5.3 3 0.1 5.4 2.6 5.3 5.6z"/>
						<path id="&lt;Path&gt;" class="s36" d="m1131.3 357.9c1.7 1 2.7 2.8 2.7 4.8-0.1 2.6-2 4.8-4.5 5.2-0.5-4 1.8-10 1.8-10z"/>
						<path id="&lt;Path&gt;" class="s16" d="m1134.1 365.1l8.3 4.2c0 0-4.1 2.9-6.2 1.3-2.2-1.6-2.1-5.5-2.1-5.5z"/>
						<path id="&lt;Path&gt;" class="s35" d="m1140.5 359.1l-1.4 5.9-2.8-1.2c-0.6-0.3-0.7-1-0.2-1.3z"/>
						<path id="&lt;Path&gt;" class="s37" d="m1146.8 354c0.7-1 2.2-1.2 3.4-0.4 1.2 0.8 1.6 4.3 0.9 3.3-1.7-2.4-4.3-2.9-4.3-2.9z"/>
						<path id="&lt;Path&gt;" class="s37" d="m1135.5 351c-1.2 0.3 1.3-2.2 2.7-2.1 1.4 0.2 2.5 1.2 2.4 2.5 0 0-2.3-1.2-5.1-0.4z"/>
						<path id="&lt;Path&gt;" class="s37" d="m1146.3 361.2c-0.4 1-1.1 1.7-1.6 1.5-0.5-0.2-0.5-1.2-0.1-2.2 0.4-0.9 1.1-1.6 1.6-1.4 0.4 0.2 0.5 1.2 0.1 2.1z"/>
						<path id="&lt;Path&gt;" class="s37" d="m1138.6 357.6c-0.3 0.9-1 1.6-1.5 1.4-0.4-0.2-0.5-1.1-0.1-2.1 0.4-0.9 1-1.5 1.5-1.4 0.5 0.2 0.5 1.1 0.1 2.1z"/>
						<path id="&lt;Path&gt;" class="s37" d="m1138.5 383.9c0 0 10.3 2 15.5 1.6 5.2-0.3-20.9 29.7-15.5-1.6z"/>
					</g>
				</g>
				<path id="&lt;Path&gt;" class="s5" d="m1211.4 913.8c-59.6 0-107.9-2.8-107.9-6.2 0-3.5 48.3-6.2 107.9-6.2 59.6 0 107.9 2.7 107.9 6.2 0 3.4-48.3 6.2-107.9 6.2z"/>
				<g id="&lt;Group&gt;">
					<path id="&lt;Path&gt;" class="s38" d="m1144.1 861.6l-3.7 26.7c0 0-6.1 17.7-11.7 10.9-5.6-6.9-11.1-10.5-11.1-10.5l-1.8-27.8z"/>
					<path id="&lt;Path&gt;" class="s36" d="m1143.5 864.6l-3.9 25.1c6.6 11.9-11.1 9.2-11.1 9.2l1-36.3z"/>
					<path id="&lt;Path&gt;" class="s38" d="m1257.3 859.6l-0.7 24.6c0 0-2.2 7.1-6.3 7.4-2.3 0.1-8.6-5.4-8.6-5.4l-8.3-26.6z"/>
					<path id="&lt;Path&gt;" class="s36" d="m1257.9 853.9l-1.4 33.9c6.6 11.9-5.4 8.7-5.4 8.7l-5.8-44.1z"/>
					<path id="&lt;Path&gt;" class="s39" d="m1118.5 888.6c1 0.9 4.3 2.5 6.9 3.4 3.8 1.3 10.9-5.2 13.1-7.3 0.4-0.5 1.1-0.7 1.8-0.6h0.1c0.7 0.2 1.3 0.6 1.4 1.2 0.8 4 1.7 18.3 1.3 22.7-0.1 0.7-8 0.9-7.9 0.1l-1.2-4.9c0.1-1.6-1.3-1.4-2 0l-2.5 5.1c-0.3 0.6-1 0.9-1.8 0.9l-33-0.2c-1.6 0-2.5-1.5-1.3-2.3l22.3-18.1c0.8-0.6 2.1-0.6 2.8 0z"/>
					<path id="&lt;Path&gt;" class="s39" d="m1256.9 883.3l12.7 21.2c1.4 2.1 0.6 4.6-1.8 6-4 2.4-7.3 7.1-9.8 7.2-4.5 0.1-11.5-4.7-15.6-6.4-2.7-1.2-4.9-3-4.5-5.3l3.1-21.3c0.1-0.3 0.5-0.4 0.8-0.2l4.8 4.4c1.6 1.5 5.9 1.3 7-0.4 0.8-1.3 2.6-5.3 2.6-5.3 0.1-0.2 0.6-0.2 0.7 0.1z"/>
				</g>
				<g id="&lt;Group&gt;">
					<path id="&lt;Path&gt;" class="s40" d="m1189.6 508.7c10.2 18.1 15.6 31.4 21.5 54.5 6.9 26.7 80.8 252.7 84 301.3-8.4 2-64.3 1.7-69.6 1.5-17-48.6-59.8-206.1-67.1-236.7-1.1-4.7-8.3-3.6-7.8 1.2 4.2 34.9 26.4 181.9 37.4 235.5-4.4 2.3-68.5 1.8-73.6 1.1-5.6-59.8-35-286.4 9.4-359.9 20.4-2.8 45.2 0.9 65.8 1.5z"/>
					<path id="&lt;Path&gt;" class="s41" d="m1129.1 846.6c0 0-20.7-160.2-20.7-223.4 0-63.2 18.1-108 18.1-108"/>
					<path id="&lt;Path&gt;" class="s41" d="m1251.8 846.6l-72.3-333.5"/>
					<path id="&lt;Path&gt;" class="s41" d="m1166.9 514.9c0 0 0.6 57.9 26.6 53.3"/>
					<path id="&lt;Path&gt;" class="s42" d="m1196.4 517.5c14.9 27.9 11.4 61.9 11.4 61.9l-83.7-63z"/>
					<path id="&lt;Path&gt;" class="s41" d="m1112.9 570.9c26 4.6 21.8-53 21.8-53"/>
				</g>
				<path id="&lt;Path&gt;" class="s43" d="m1163 409.8c0 0 5.3-1.5 4.5-0.4-0.9 1.2-2.8 2.4-4.7 3.7z"/>
				<path id="&lt;Path&gt;" class="s41" d="m1184.1 846.9l-72.2 0.1"/>
				<path id="&lt;Path&gt;" class="s41" d="m1292.8 846.3l-74.6 0.7"/>
				<path id="&lt;Path&gt;" class="s44" d="m1212.7 619l2.2-6.8c0 0-0.5 4.7-0.5 5.1z"/>
				<path id="&lt;Path&gt;" class="s44" d="m1201.7 627.8c-0.6 0.3-2.2-2.6-2.2-2.6l1.5-1.1c-0.4 2.4 0.7 3.7 0.7 3.7z"/>
				<g id="&lt;Group&gt;">
					<path id="&lt;Path&gt;" class="s34" d="m1031.6 444.9c0.3-1.3 2.5-2.5 3-4.6 0.5-2.1 1.4-3.2 3-3.9 1.6-0.7 2.1-2.1 2.1-2.1 0 0-8.1-12.4-6-14.7 1.5-1.6 22.5 26.2 22.5 26.2 0 0 40.1 39 40.3 38 5.8-24.4 13.8-77.2 34.8-72 0.3 0.1-2 1.9-2.7 2.8-6.9 8.7-10.1 50.5-10.1 50.5-0.1 0.7-0.1 3.5-0.1 7.6 7.4 42.4-7.3 52.8-7.3 52.8-12.8 9-67.5-66.8-67.5-66.8-4.5-3.3-12.4-12.6-12-13.8z"/>
					<path id="&lt;Path&gt;" class="s34" d="m1049.1 448.8c-3.4-0.9-2.1-7.6-2.1-7.6 0 0-6.7 2.4-6.9-0.6-0.2-3 7.6-6.3 9.4-6.7 1.7-0.3 6 11.7 6 11.7 0 0-3 4.1-6.4 3.2z"/>
					<g id="&lt;Group&gt;">
						<path id="&lt;Path&gt;" class="s36" d="m1045 440.6c0 0 0.2 3-2.3 3.6 0 0-0.5 3.2-3.7 2.5 0 0 0.9 1.4-1 1.7 0 0 8.3 9 7-7.8z"/>
						<g id="&lt;Group&gt;">
							<path id="&lt;Path&gt;" class="s35" d="m1046.6 434.8c-1.4 1.1-2.9 2-4.4 2.9-0.7 0.5-1.7 0.9-2.2 1.3-0.3 0.3-0.5 0.5-0.6 0.7 0 0.2 0 0.3 0.2 0.5 0.5 0.5 1.3 0.8 2.1 1 0.8 0.2 1.6 0.2 2.5 0.3 0.4 0.1 0.8-0.1 1.6 0.4 0.3 0.3 0.3 0.8 0.2 1l-0.2 0.7c-0.2 0.8-0.5 1.7-0.8 2.5h-0.1l0.5-2.6c0-0.4 0.3-0.9 0-1.2-0.3-0.3-0.8-0.2-1.2-0.2-1.8 0-3.7-0.1-5.1-1.3-0.4-0.3-0.5-0.8-0.4-1.3 0.1-0.4 0.5-0.8 0.8-1 0.8-0.6 1.6-0.9 2.4-1.3l4.7-2.4z"/>
						</g>
						<g id="&lt;Group&gt;">
							<path id="&lt;Path&gt;" class="s35" d="m1039.6 433.9c0.4 0 0.7 0.2 1 0.3 0.4 0.2 0.6 0.4 0.8 0.6 0.2 0.3 0.5 0.5 0.6 0.8 0.2 0.3 0.3 0.6 0.3 1l-0.1 0.1q-1.4-1.3-2.7-2.8z"/>
						</g>
						<g id="&lt;Group&gt;">
							<path id="&lt;Path&gt;" class="s35" d="m1036 438.4c0.8 0.5 1.5 1 2.3 1.6 0.7 0.5 1.4 1.1 2.1 1.6 0.7 0.6 1.5 1.2 2.1 1.7 0.4 0.3 0.7 0.4 1.1 0.5 0.4 0.1 0.8 0.1 1.2-0.2-0.6 0.9-1.8 0.7-2.6 0.2-0.8-0.4-1.5-1-2.3-1.5q-2.2-1.8-4-3.9z"/>
						</g>
						<g id="&lt;Group&gt;">
							<path id="&lt;Path&gt;" class="s35" d="m1042.9 444.2c0.1 1 0 2.3-1.2 3.2-0.5 0.5-1.4 0.5-2 0.3-0.6-0.1-1.2-0.4-1.7-0.8-0.9-0.7-1.6-1.5-2.3-2.4-0.6-0.9-1.2-1.8-1.7-2.8h0.1q1 1.2 2.1 2.4c0.7 0.8 1.5 1.6 2.3 2.2 0.8 0.6 2 1.1 2.9 0.6 1-0.6 1.2-1.7 1.4-2.7z"/>
						</g>
						<g id="&lt;Group&gt;">
							<path id="&lt;Path&gt;" class="s35" d="m1039.2 446.1c0.2 0.7 0.2 1.4 0 2.1-0.1 0.4-0.2 0.7-0.6 1.1-0.1 0.2-0.5 0.4-0.6 0.4q-0.3 0.1-0.6 0.1c-0.8 0.2-1.6-0.2-2.2-0.4-0.3-0.1-0.6-0.3-0.9-0.5-0.3-0.3-0.5-0.6-0.6-1 0.5 0.5 1.1 0.7 1.7 0.9 0.6 0.2 1.3 0.3 1.9 0.3 0.3 0 0.7-0.1 0.9-0.3 0.2-0.2 0.4-0.5 0.5-0.8 0.2-0.6 0.4-1.2 0.5-1.9z"/>
						</g>
					</g>
				</g>
				<path id="&lt;Path&gt;" class="s45" d="m1109.7 529c-13.7 4.3-61.3-55.9-61.3-55.9l13-23.6 33.4 32.1c0 0 12.1-49.5 17.5-60.6 5.4-11.1 19-9.2 19-9.2 0.2 15.1-7.9 113-21.6 117.2z"/>
				<g id="&lt;Group&gt;">
					<path id="&lt;Path&gt;" class="s45" d="m1173.2 414.8c5.2 0.4 17.1 6.4 17.1 6.4 6.3 17.5 22.7 73 4 89.3-60.7 9.6-71.7 0.9-71.7 0.9 0.8-2.1-8.9-26-9.6-40.2-0.7-14 16.7-55.6 16.1-57 24 7.1 44.1 0.6 44.1 0.6z"/>
					<path id="&lt;Path&gt;" class="s46" d="m1155.5 428.7c-6.9 4-15.5-0.6-16.1-8.5l-0.2-4c15.3-5.4 25.6-12.7 25.6-12.7l8.6 11.3c-3.1 4.5-10.8 9.7-17.9 13.9z"/>
					<path id="&lt;Path&gt;" class="s46" d="m1137.1 402.9c0 0-2.6 9.7 2.3 13.5l-1.4 3.3c-1.6 4.7-8.5 3.9-8.9-1-0.2-1.9-0.2-3.7 0.1-5.1z"/>
				</g>
				<g id="&lt;Group&gt;">
					<path id="&lt;Path&gt;" class="s0" d="m1154.7 597.3c-3.8-5.9-2.1-13.7 3.8-17.5l67.7-43.4 32.5 50.8-78.4 50.2z"/>
				</g>
				<g id="&lt;Group&gt;">
					<path id="&lt;Path&gt;" class="s47" d="m1208.1 546.4c0 0 12.7 5.9 2.9 41.7-0.5 1.9-0.9 4.1-0.6 6l2.2 15.4c0.4 1.6 0.6 3.8-0.8 4.8-1.8 1.1-11.7 10.3-13 10.7-2.4 0.8 0.3-11.3-0.1-17.7-0.1-1.2-0.4 4-0.5 6.3l-0.3 5c-3-1.4-3-7.1-3.4-9.1-0.6-2.6-0.1-4.2 0.2-4.8 1.3-2.9 3.9-8.5 4.3-13.6 0.3-3-1.8-14-3.6-34.6z"/>
					<path id="&lt;Path&gt;" class="s34" d="m1209.8 459.2c23.4 130.9 8.2 155.7 6.6 156.7-1.9 1.3-12.8 11.4-14.2 11.8-2.7 0.9 0.3-12.4-0.1-19.5-0.1-1.2-0.4 4.5-0.6 7l-0.3 5.5c-3.3-1.5-3.2-7.8-3.7-10-0.7-2.8-0.2-4.6 0.2-5.3 1.5-3.1 4.3-9.3 4.7-14.8 0.3-3.3-21.9-109.6-25.8-125.2-5.3-21.2 1.4-45.6 8.8-46.4 9.3-1.1 22.4 29.4 24.4 40.2z"/>
					<path id="&lt;Path&gt;" class="s45" d="m1195.5 586.3c-6.8-35.6-15-105.3-18.9-120.9-5.3-21.2 1.4-45.6 8.8-46.4 9.3-1.1 20.3 11.4 27.9 33.7 17 50 12 126.3 12.9 130.3z"/>
				</g>
			</g>
			<g id="&lt;Group&gt;">
				<path id="&lt;Path&gt;" class="s0" d="m1195.2 272.6c0-11.9 9.7-21.6 21.7-21.6h52.7c12 0 21.7 9.7 21.7 21.6v4.7c0 12-9.7 21.7-21.7 21.7h-58.8l-15.6 15.6z"/>
				<g id="&lt;Group&gt;">
					<path id="&lt;Path&gt;" class="s48" d="m1265.5 269c2.9 0 5.4 2.4 5.4 5.4 0 2.9-2.5 5.4-5.4 5.4-3 0-5.4-2.5-5.4-5.4 0-3 2.4-5.4 5.4-5.4z"/>
					<path id="&lt;Path&gt;" class="s48" d="m1245.7 269c2.9 0 5.4 2.4 5.4 5.4 0 2.9-2.5 5.4-5.4 5.4-3 0-5.4-2.5-5.4-5.4 0-3 2.4-5.4 5.4-5.4z"/>
					<path id="&lt;Path&gt;" class="s48" d="m1225.8 269c3 0 5.4 2.4 5.4 5.4 0 2.9-2.4 5.4-5.4 5.4-2.9 0-5.4-2.5-5.4-5.4 0-3 2.5-5.4 5.4-5.4z"/>
				</g>
			</g>
		</g>
		<g id="&lt;Group&gt;">
			<g id="&lt;Group&gt;">
				<path id="&lt;Path&gt;" class="s5" d="m255.1 878.9c-69.4 0-125.7-3.2-125.7-7.2 0-4 56.3-7.3 125.7-7.3 69.5 0 125.8 3.3 125.8 7.3 0 4-56.3 7.2-125.8 7.2z"/>
				<g id="&lt;Group&gt;">
					<path id="&lt;Path&gt;" class="s49" d="m368.6 855.3l-19.5 14.9-10.7-18.7 0.5-6.8 22.9-0.8 3.9 7.6z"/>
					<path id="&lt;Path&gt;" class="s50" d="m351.7 844.7l-1 17.7c0 0-5.9-3.4-12.9-9.7l0.9-10z"/>
					<path id="&lt;Path&gt;" class="s40" d="m403.5 867.9c0.6 0.3 1 1 1 1.8v5.2c0 1-0.7 1.9-1.5 1.9h-68.2l2.7-24.7c0.1-0.7 0.7-1 1.1-0.7 2.2 1.9 9.2 9.2 13.9 5.7 7.8-6 14.6-5.8 14.6-5.8z"/>
					<path id="&lt;Path&gt;" class="s51" d="m370.9 852.6l-11 6.3"/>
					<path id="&lt;Path&gt;" class="s51" d="m375.7 855l-11 6.4"/>
				</g>
				<g id="&lt;Group&gt;">
					<path id="&lt;Path&gt;" class="s49" d="m257.3 855.3l-19.4 14.9-10.8-18.7 2.4-10.7 21.1 3.1 3.8 7.6z"/>
					<path id="&lt;Path&gt;" class="s50" d="m238.1 844.2l2 16.7c0 0-6-3.4-13-9.6l1.9-8.6z"/>
					<path id="&lt;Path&gt;" class="s40" d="m292.3 867.9c0.5 0.3 0.9 1 0.9 1.8v5.2c0 1-0.6 1.9-1.4 1.9h-68.3l2.7-24.7c0.1-0.7 0.7-1 1.1-0.7 2.2 1.9 9.3 9.2 13.9 5.7 7.9-6 14.6-5.8 14.6-5.8z"/>
					<path id="&lt;Path&gt;" class="s51" d="m261.2 853.1l-11 6.3"/>
					<path id="&lt;Path&gt;" class="s51" d="m266 855.5l-11 6.4"/>
				</g>
				<path id="&lt;Compound Path&gt;" fill-rule="evenodd" class="s33" d="m333.2 299.8c-1 1.3-2.2 2.7-3.7 3.3-3.1 1.2-7.2-1.4-10.8-4.2-3.5-2.7-10.2 1.7-11.2 2.4l-8 26.1 0.6 0.3-0.3 0.5-0.2 0.4-8.1-4.3v-0.2c-6-19.6-4.8-27.4-0.6-33-3.2-4.5-2.2-12.2 3.7-13.7 2.2-0.5 5.3-0.5 7.9 0.4 2-2.7 5.1-4.7 7.7-4.8 3.1 0 5.6 1.6 7.3 4 1.1-2.1 2.4-3.9 4.2-5.4 3.8-3.2 9.4-3.8 13.8-1.2 8.3 5 6.7 16.3 2 23.9-0.9 2.3-2.3 4.3-4.3 5.5zm-8.5-26.5c6.1-1.7 12.3 1.5 13.6 8 0-3.3-1.3-6.3-4.4-8.2-2.9-1.8-6.4-1.5-9.2 0.2zm-28.7 52.2l1.7 0.9c-1.2-1.2-2.6-1.9-3.5-2.2z"/>
				<g id="&lt;Group&gt;">
					<path id="&lt;Path&gt;" class="s52" d="m361.4 552.6c0 0 8.8 105 9.6 134 0.8 29-5 158.4-5 158.4l-36.5 0.7c0 0-25.5-217.1-61-287.1z"/>
					<path id="&lt;Path&gt;" class="s51" d="m317.1 558.1c0 0 25 121.3 25 140 0 18.6 3.7 146.6 3.7 146.6"/>
					<path id="&lt;Path&gt;" class="s51" d="m327.6 831.5h38.7"/>
				</g>
				<g id="&lt;Group&gt;">
					<path id="&lt;Path&gt;" class="s45" d="m361.5 552.6c0 0-20.3 87.5-40.9 149.5-16.7 50-53.6 145.9-53.6 145.9l-41-1 35.6-143.5c1.9-7.4 3.1-15.1 3.6-22.8 1.8-29.1-4.2-87.8-6.7-125.5z"/>
					<g id="&lt;Group&gt;">
						<path id="&lt;Path&gt;" class="s53" d="m290.3 554.2c0 0 9.6 113.5 1 131.1-8.6 17.7-50.7 161.4-50.7 161.4"/>
						<path id="&lt;Path&gt;" class="s53" d="m230.1 834h41.1"/>
						<path id="&lt;Path&gt;" class="s53" d="m324.8 553.2l-30.6 40.1"/>
					</g>
				</g>
				<g id="&lt;Group&gt;">
					<path id="&lt;Path&gt;" class="s49" d="m312.4 387.3c0 0-1.2-9.4 7.5-10.8 8.8-1.4 32.2-7.6 92 12.8 0 0 10.3-57.8 10.4-62.5 0.3-12.2 4.1-28 13.6-36.3 0.7-0.7 1.3 30.2 1.6 46.6 0 0 8 83-1.7 91.3-9.7 8.4-133-12.7-123.4-41.1z"/>
					<path id="&lt;Path&gt;" class="s40" d="m376.3 375.1l5.5 58.4c-17.8 4.3-83.5-13.6-84.5-39.9-1-26.2 32.8-20.6 32.8-20.6z"/>
					<path id="&lt;Path&gt;" class="s54" d="m381.6 432.6c-5.3 6.3-56.6-6.9-62.2-15.4 0 0-0.8-28.7 1.3-29.3 22.3-6.1 60.9 44.7 60.9 44.7z"/>
				</g>
				<g id="&lt;Group&gt;">
					<path id="&lt;Path&gt;" class="s40" d="m289.1 364.9l51.5 13.2c3.1 0.4 8.8 8.9 13.6 16.4 5.1 8.1 8.1 17.4 8.6 27.1l6.3 130.6-114.9 3.6c0 0-23.7-105.2-20.8-143.2 2.8-37.9 48.7-42.6 48.7-42.6z"/>
					<path id="&lt;Path&gt;" class="s55" d="m369.1 552.2l-114.9 3.6c0 0-23.7-105.2-20.8-143.2 1.4-18.9 11.4-39.5 39.2-28.3"/>
				</g>
				<path id="&lt;Path&gt;" class="s16" d="m333.3 502.4c0.3 2 0 3.7-0.7 3.7-0.6 0.1-1.4-1.4-1.6-3.4-0.3-2 0-3.7 0.7-3.8 0.7-0.1 1.4 1.5 1.6 3.5z"/>
				<g id="&lt;Group&gt;">
					<path id="&lt;Path&gt;" class="s49" d="m297.2 334.6c0.4-0.9 3.7-3.2 3.7-3.2l21.4 19.4 2.1 21.3-3.9 11.5-26.6-22.2 2.6-25.8c0 0 0.3-0.2 0.7-1z"/>
					<path id="&lt;Path&gt;" class="s33" d="m300.9 331.4l21.4 19.4 1.5 12.7c0 0-19.4-5.4-20.1-21.5"/>
				</g>
				<g id="&lt;Group&gt;">
					<g id="&lt;Group&gt;">
						<path id="&lt;Path&gt;" class="s16" d="m324.4 400.3c0.3 2 0 3.7-0.7 3.8-0.6 0.1-1.4-1.5-1.6-3.5-0.3-2 0-3.7 0.7-3.8 0.6 0 1.4 1.5 1.6 3.5z"/>
						<path id="&lt;Path&gt;" class="s16" d="m326.2 420.7c0.3 2-0.1 3.7-0.7 3.8-0.7 0.1-1.4-1.5-1.7-3.5-0.2-2 0.1-3.7 0.8-3.7 0.6-0.1 1.3 1.4 1.6 3.4z"/>
						<path id="&lt;Path&gt;" class="s16" d="m328 441.1c0.3 2-0.1 3.7-0.7 3.8-0.7 0.1-1.4-1.5-1.7-3.5-0.2-2 0.1-3.7 0.7-3.7 0.7-0.1 1.4 1.4 1.7 3.4z"/>
						<path id="&lt;Path&gt;" class="s16" d="m329.8 461.5c0.2 2-0.1 3.7-0.7 3.8-0.7 0.1-1.4-1.4-1.7-3.4-0.2-2 0.1-3.7 0.7-3.8 0.7-0.1 1.4 1.4 1.7 3.4z"/>
						<path id="&lt;Path&gt;" class="s16" d="m331.6 481.9c0.2 2-0.1 3.7-0.7 3.8-0.7 0.1-1.4-1.4-1.7-3.4-0.3-2 0.1-3.7 0.7-3.8 0.7-0.1 1.4 1.4 1.7 3.4z"/>
						<path id="&lt;Path&gt;" class="s16" d="m335.1 522.8c0.3 2 0 3.7-0.7 3.8-0.6 0-1.4-1.5-1.6-3.5-0.3-2 0-3.7 0.7-3.8 0.6-0.1 1.4 1.5 1.6 3.5z"/>
						<path id="&lt;Path&gt;" class="s16" d="m336.9 543.2c0.3 2 0 3.7-0.7 3.8-0.6 0.1-1.4-1.5-1.6-3.5-0.3-2 0-3.7 0.7-3.8 0.6-0.1 1.4 1.5 1.6 3.5z"/>
					</g>
					<g id="&lt;Group&gt;">
						<path id="&lt;Path&gt;" class="s16" d="m320.5 383.6l-6.2 12.6-35.4-30.1 14.1-6.6z"/>
						<path id="&lt;Path&gt;" class="s16" d="m324.4 369.3c0.6 0.3 6.2 4.1 6.2 4.1l0.2 19-10.3-8.8z"/>
					</g>
				</g>
				<g id="&lt;Group&gt;">
					<g id="&lt;Group&gt;">
						<path id="&lt;Path&gt;" class="s40" d="m355.5 501.1l25.6-80.2c1.4-4.5 4.6-8.1 8.8-9.9l52.4-22.6c1.5-0.7 3.1 0.9 2.6 2.5l-25.9 78.6c-1.4 4.2-4.4 7.7-8.3 9.5l-52.5 24.6c-1.6 0.7-3.2-0.8-2.7-2.5z"/>
						<path id="&lt;Path&gt;" class="s16" d="m359.9 505.8l25.6-80.2c1.4-4.5 4.6-8.1 8.8-9.9l52.4-22.6c1.5-0.7 3.1 0.9 2.6 2.5l-25.9 78.6c-1.4 4.2-4.4 7.7-8.3 9.5l-52.5 24.6c-1.6 0.7-3.2-0.8-2.7-2.5z"/>
						<path id="&lt;Path&gt;" class="s56" d="m373 447.1l19.3 5.7-24.4 9.8z"/>
						<path id="&lt;Path&gt;" class="s57" d="m395.7 429.9l45.3-19.4"/>
						<path id="&lt;Path&gt;" class="s57" d="m395.7 438.5l37.4-15.5"/>
						<path id="&lt;Path&gt;" class="s0" d="m375.4 486.7l48.5-21.2-3.2 10.1-49.4 22.2z"/>
					</g>
					<path id="&lt;Path&gt;" class="s49" d="m392.5 461.2c-2.8 2.5-53.6 54.6-78 78.1-6.6 6.4-17.1 4.8-21.7-3.2l-42.8-71.7 40.5-31.4c0.3 0.4 21.5 36.4 26.4 54.5 1.6 5.9 4.4 5.5 9.2 2.5l37-22.8c0 0-0.1-6.5 0.8-8.9 1.5-4.6 9-10.9 9-10.9l-3.3 9.9c-0.5 1.6-2.4 2.8 0.6 3.2l23.5-17.4c0 0 2.1-0.2 0.1 2.1-2.1 2.3-4.3 4.7-4 4.9 0.3 0.2 6.7-4.3 7-2.6 0.3 1.8-5.2 5.9-5 6.1 0.2 0.2 6.2-4.8 6.6-3.2 0.3 1.6-4.2 4.7-4.5 5.4-0.2 0.6 5-3.4 5.2-2.5 0.2 0.9-5 6.4-6.6 7.9z"/>
					<path id="&lt;Path&gt;" class="s40" d="m300.4 442.9l-47.8 33.3c-12.4-13.7-28.9-80.2-6.6-93.9 22.3-13.7 33.8 18.8 33.8 18.8z"/>
				</g>
				<g id="&lt;Group&gt;">
					<path id="&lt;Path&gt;" class="s49" d="m304.6 304.1c3.6-10.6 9.5-8.3 12.5-7.5 3.7 1.1 9 5.6 12.3 4.5 3.2-1.2 5.5-5.6 5.5-5.6 2.1 51.1-0.1 47.8-5.1 52.6-5 4.8-11.7 4.5-16.3 2.5-7.5-3.3-12.5-11.8-14-14.4-0.8-1.2-10.5 0.4-8.8-8.9 1.3-6.8 4.7-4.5 6.5-2.8 0.5 0.5 1.3 0.3 1.6-0.3 1.5-4.1 4.1-15.3 5.8-20.1z"/>
					<g id="&lt;Group&gt;">
						<path id="&lt;Path&gt;" class="s58" d="m333.2 321.1c0 0-0.8-4.3-2.6 0.1"/>
						<path id="&lt;Path&gt;" class="s58" d="m289.9 325.4c1.1-3.9 5.5-3.4 5.5-3.4l23.2-0.6"/>
						<path id="&lt;Path&gt;" class="s58" d="m340.3 319c0 4.6-1.7 8.3-3.6 8.3-2 0-3.6-3.7-3.6-8.3 0-4.5 1.6-8.2 3.6-8.2 1.9 0 3.6 3.7 3.6 8.2z"/>
						<path id="&lt;Path&gt;" class="s58" d="m330.5 320c0 5.5-2.7 9.9-6 9.9-3.4 0-6.1-4.4-6.1-9.9 0-5.4 2.7-9.8 6.1-9.8 3.3 0 6 4.4 6 9.8z"/>
					</g>
					<g id="&lt;Group&gt;">
						<path id="&lt;Path&gt;" class="s16" d="m331.2 337.4c-2.8 1-6.8-4.3-6.8-4.3 7.3 0.7 10.3-0.8 10.3-0.8 0 0-0.6 4.1-3.5 5.1z"/>
						<path id="&lt;Path&gt;" class="s50" d="m292.2 326.6l5.1 3.9c0 0-1.9-9.4-5.1-3.9z"/>
						<path id="&lt;Path&gt;" class="s33" d="m328.8 321.5c0 1.1-0.5 2-1 2-0.6 0-1-0.9-1-2 0-1.2 0.4-2.1 1-2.1 0.5 0 1 0.9 1 2.1z"/>
						<path id="&lt;Path&gt;" class="s33" d="m335.2 320.5c0 1.1-0.5 2-1 2-0.6 0-1-0.9-1-2 0-1.2 0.4-2.1 1-2.1 0.5 0 1 0.9 1 2.1z"/>
						<path id="&lt;Path&gt;" class="s33" d="m320.4 312.7c-1.4 1.1 0.9-3.6 2.9-4.1 2-0.5 3.9 0.5 4.3 2.3 0 0-3.6-0.6-7.2 1.8z"/>
						<path id="&lt;Path&gt;" class="s33" d="m335.5 312.3c-2.1-0.3-3.6 0.1-3.6 0.1 0.2-1.7 1.8-2.9 3.6-2.9"/>
						<path id="&lt;Path&gt;" class="s50" d="m332.2 320.4l3 8.6c0 0.1-0.1 0.3-0.2 0.3l-3.6 0.2c-0.1 0-0.2-0.1-0.2-0.2l0.6-8.8c0-0.3 0.3-0.3 0.4-0.1z"/>
					</g>
				</g>
			</g>
			<g id="&lt;Group&gt;">
				<path id="&lt;Path&gt;" class="s45" d="m270.5 265.3l-15.6-15.6h-58.9c-12 0-21.7-9.7-21.7-21.7v-4.7c0-12 9.7-21.7 21.7-21.7h52.8c12 0 21.7 9.7 21.7 21.7z"/>
				<g id="&lt;Group&gt;">
					<path id="&lt;Path&gt;" class="s48" d="m205.6 225c0 3-2.4 5.4-5.4 5.4-3 0-5.4-2.4-5.4-5.4 0-3 2.4-5.4 5.4-5.4 3 0 5.4 2.4 5.4 5.4z"/>
					<path id="&lt;Path&gt;" class="s48" d="m225.4 225c0 3-2.4 5.4-5.4 5.4-3 0-5.4-2.4-5.4-5.4 0-3 2.4-5.4 5.4-5.4 3 0 5.4 2.4 5.4 5.4z"/>
					<path id="&lt;Path&gt;" class="s48" d="m245.3 225c0 3-2.5 5.4-5.4 5.4-3 0-5.5-2.4-5.5-5.4 0-3 2.5-5.4 5.5-5.4 2.9 0 5.4 2.4 5.4 5.4z"/>
				</g>
			</g>
		</g>
		<g id="&lt;Group&gt;">
			<g id="&lt;Group&gt;">
				<g id="&lt;Group&gt;">
					<path id="&lt;Path&gt;" class="s59" d="m1349.4 584.9c-25.5 0-46.3-20.8-46.3-46.4 0-25.5 20.8-46.3 46.3-46.3 25.6 0 46.4 20.8 46.4 46.3 0 25.6-20.8 46.4-46.4 46.4z"/>
					<g id="&lt;Group&gt;">
						<path id="&lt;Path&gt;" class="s5" d="m1365.3 584.7h-62.6c-4.1 0-7.4-3.3-7.4-7.4v-81c0-4.1 3.3-7.4 7.4-7.4h62.6c4.1 0 7.4 3.3 7.4 7.4v81c0 4.1-3.3 7.4-7.4 7.4z"/>
						<g id="&lt;Group&gt;">
							<path id="&lt;Path&gt;" class="s60" d="m1354.7 576.9h-46.7c-1.7 0-3.1-1.4-3.1-3v-74.5c0-1.7 1.4-3 3.1-3h53.4c1.7 0 3.1 1.3 3.1 3v68c-1.2 1.2-8.6 8.3-9.8 9.5z"/>
							<path id="&lt;Path&gt;" class="s61" d="m1363.4 567l-9.7 9.6-0.2-6.1c-0.1-2.1 1.6-3.8 3.7-3.7z"/>
							<g id="&lt;Group&gt;">
								<g id="&lt;Group&gt;">
									<path id="&lt;Path&gt;" class="s5" d="m1313 498.6c-1.7 0-3-1.4-3-3v-9.3c0-1.7 1.3-3 3-3 1.7 0 3 1.3 3 3v9.3c0 1.6-1.3 3-3 3z"/>
									<path id="&lt;Path&gt;" class="s62" d="m1313 502.6c-1.7 0-3-1.3-3-3v-9.3c0-1.6 1.3-3 3-3 1.7 0 3 1.4 3 3v9.3c0 1.7-1.3 3-3 3z"/>
								</g>
								<g id="&lt;Group&gt;">
									<path id="&lt;Path&gt;" class="s5" d="m1332.3 498.6c-1.6 0-3-1.4-3-3v-9.3c0-1.7 1.4-3 3-3 1.7 0 3 1.3 3 3v9.3c0 1.6-1.3 3-3 3z"/>
									<path id="&lt;Path&gt;" class="s62" d="m1332.3 502.6c-1.6 0-3-1.3-3-3v-9.3c0-1.6 1.4-3 3-3 1.7 0 3 1.4 3 3v9.3c0 1.7-1.3 3-3 3z"/>
								</g>
								<g id="&lt;Group&gt;">
									<path id="&lt;Path&gt;" class="s5" d="m1351.6 498.6c-1.6 0-3-1.4-3-3v-9.3c0-1.7 1.4-3 3-3 1.7 0 3.1 1.3 3.1 3v9.3c0 1.6-1.4 3-3.1 3z"/>
									<path id="&lt;Path&gt;" class="s62" d="m1351.6 502.6c-1.6 0-3-1.3-3-3v-9.3c0-1.6 1.4-3 3-3 1.7 0 3.1 1.4 3.1 3v9.3c0 1.7-1.4 3-3.1 3z"/>
								</g>
							</g>
							<g id="&lt;Group&gt;">
								<path id="&lt;Path&gt;" class="s63" d="m1317.2 536.3c0 1.8-1.4 3.2-3.2 3.2-1.8 0-3.2-1.4-3.2-3.2 0-1.8 1.4-3.2 3.2-3.2 1.8 0 3.2 1.4 3.2 3.2z"/>
								<path id="&lt;Path&gt;" class="s63" d="m1317.2 550c0 1.8-1.4 3.2-3.2 3.2-1.8 0-3.2-1.4-3.2-3.2 0-1.8 1.4-3.2 3.2-3.2 1.8 0 3.2 1.4 3.2 3.2z"/>
								<path id="&lt;Path&gt;" class="s63" d="m1317.2 563.7c0 1.8-1.4 3.2-3.2 3.2-1.8 0-3.2-1.4-3.2-3.2 0-1.8 1.4-3.2 3.2-3.2 1.8 0 3.2 1.4 3.2 3.2z"/>
								<g id="&lt;Group&gt;">
									<path id="&lt;Path&gt;" class="s64" d="m1350.9 537.3h-25.7c-0.7 0-1.3-0.6-1.3-1.3 0-0.7 0.6-1.3 1.3-1.3h25.7c0.8 0 1.3 0.6 1.3 1.3 0 0.7-0.5 1.3-1.3 1.3z"/>
									<path id="&lt;Path&gt;" class="s64" d="m1350.9 551.4h-25.7c-0.7 0-1.3-0.6-1.3-1.3 0-0.7 0.6-1.3 1.3-1.3h25.7c0.8 0 1.3 0.6 1.3 1.3 0 0.7-0.5 1.3-1.3 1.3z"/>
									<path id="&lt;Path&gt;" class="s64" d="m1350.9 565.5h-25.7c-0.7 0-1.3-0.6-1.3-1.3 0-0.7 0.6-1.3 1.3-1.3h25.7c0.8 0 1.3 0.6 1.3 1.3 0 0.7-0.5 1.3-1.3 1.3z"/>
								</g>
								<path id="&lt;Path&gt;" class="s65" d="m1314.1 537.6q-0.3 0-0.5-0.3l-3.4-3.8c-0.3-0.4-0.3-0.9 0-1.3 0.3-0.3 0.8-0.3 1.1 0l2.8 3.3 4.9-5.7c0.3-0.3 0.8-0.3 1.1 0 0.3 0.4 0.3 1 0 1.3l-5.4 6.2q-0.3 0.3-0.6 0.3z"/>
								<path id="&lt;Path&gt;" class="s65" d="m1314.1 551.3q-0.3 0-0.5-0.2l-3.4-3.9c-0.3-0.3-0.3-0.9 0-1.2 0.3-0.4 0.8-0.4 1.1 0l2.8 3.2 4.9-5.6c0.3-0.4 0.8-0.4 1.1 0 0.3 0.3 0.3 0.9 0 1.2l-5.4 6.3q-0.3 0.2-0.6 0.2z"/>
							</g>
						</g>
					</g>
					<g id="&lt;Group&gt;">
						<g id="&lt;Group&gt;">
							<g id="&lt;Group&gt;">
								<path id="&lt;Path&gt;" class="s66" d="m1380.6 537.2c0 12.4-10 22.4-22.3 22.4-12.4 0-22.4-10-22.4-22.4 0-12.3 10-22.3 22.4-22.3 12.3 0 22.3 10 22.3 22.3z"/>
								<path id="&lt;Path&gt;" class="s67" d="m1380.6 537.2c0 12.4-10 22.4-22.3 22.4-12.4 0-22.4-10-22.4-22.4 0-12.3 10-22.3 22.4-22.3 12.3 0 22.3 10 22.3 22.3z"/>
								<path id="&lt;Path&gt;" class="s68" d="m1374.6 554l17.4 15.8"/>
							</g>
						</g>
					</g>
				</g>
			</g>
			<g id="&lt;Group&gt;">
				<g id="&lt;Group&gt;">
					<path id="&lt;Path&gt;" class="s69" d="m1313.9 364.2c0 19.3-15.6 34.8-34.8 34.8-19.2 0-34.8-15.5-34.8-34.8 0-19.2 15.6-34.8 34.8-34.8 19.2 0 34.8 15.6 34.8 34.8z"/>
				</g>
				<g id="&lt;Group&gt;">
					<path id="&lt;Path&gt;" class="s70" d="m1275.4 383.5h-12.6v-12.6h12.6z"/>
					<path id="&lt;Path&gt;" class="s71" d="m1279.7 366.1l-12.1 13.5-2.2-4.1"/>
				</g>
				<g id="&lt;Group&gt;">
					<path id="&lt;Path&gt;" class="s70" d="m1275.4 358.3h-12.6v-12.6h12.6z"/>
					<path id="&lt;Path&gt;" class="s71" d="m1279.7 340.9l-12.1 13.6-2.2-4.1"/>
				</g>
				<g id="&lt;Clip Group&gt;" clip-path="url(#cp5)" style="opacity: .6">
					<path id="&lt;Path&gt;" class="s72" d="m1315.2 353.9h-29.4c-1.3 0-2.3-1.1-2.3-2.4 0-1.2 1-2.3 2.3-2.3h29.4c1.3 0 2.3 1.1 2.3 2.3 0 1.3-1 2.4-2.3 2.4z"/>
					<path id="&lt;Path&gt;" class="s72" d="m1317.5 378.9h-31.6c-1.4 0-2.4-1.1-2.4-2.4 0-1.4 1-2.4 2.4-2.4h31.6c1.3 0 2.4 1 2.4 2.4 0 1.3-1.1 2.4-2.4 2.4z"/>
					<g id="&lt;Group&gt;">
					</g>
				</g>
			</g>
		</g>
	</g>
</svg>