<svg width="1920" height="949" viewBox="0 0 1920 949" fill="none" xmlns="http://www.w3.org/2000/svg">
<path d="M2155.06 12.2992C2128.78 198.469 2066.09 1462.2 1653.7 1434.32C1241.31 1406.45 320.804 1195.4 347.075 1009.23C373.347 823.062 731.164 593.783 1205.95 564.831C1611.29 520.13 1390.34 -109.565 2155.06 12.2992Z" fill="#D8E3E8"/>
<path d="M2166.05 113.598C2161.84 316.118 2350.09 1177.29 1791.08 1096.72C1480.08 1090.26 365.382 1330.62 369.591 1128.1C373.799 925.577 1246.7 647.827 1555.38 679.617C1843.55 709.295 2170.25 -88.9225 2166.05 113.598Z" fill="#C2D0D7"/>
<path d="M-146.693 311.784C-130.338 235.751 -57.8056 -285.336 78.3116 -256.057C214.429 -226.777 561.321 -80.7602 544.966 -4.72699C528.611 71.3062 351 131.981 191.793 123.572C55.0521 124.675 102.85 395.166 -146.693 311.784Z" fill="#D8E3E8"/>
</svg>
